# xmcd CD database file
#
# Track frame offsets:
#	151
#	15737
#	31711
#	52193
#	75056
#	105877
#	121849
#	139242
#	157152
#	174442
#	186871
#	204117
#	223533
#	244666
#
# Disc length: 3482 seconds
#
# Revision: 0
# Processed by: cddbd v1.5.2PL0 Copyright (c) Steve Scherf et al.
# Submitted via: CDex 1.70beta2
#
DISCID=aa0d980e
DTITLE=Various Artist - Supreme Stero Sound - Golden Lips
DYEAR=2006
DGENRE=Jazz
TTITLE0=Emi Fuiji - Over the Rainbow
TTITLE1=Jane Monheit - Desperado
TTITLE2=Carol Kidd - When I Dream
TTITLE3=Jane Frye Sidwell - The Nearness of You
TTITLE4=Jane Monheit - Spring can really hang you up the most
TTITLE5=The Judds - Maybe Your baby's got the blues
TTITLE6=Amanda Mcbroom - From Where I Stand
TTITLE7=Sheryl Crow - Windflower
TTITLE8=Alison Moyet - The Man I Love
TTITLE9=Crystal Gayle - Don't it make my brown eyes blue
TTITLE10=Babar Streisand - Letting Go
TTITLE11=Mary Black - Full Moon
TTITLE12=Joan Baez - Famous Blue Raincoat
TTITLE13=Jzume Masuda - May you have happiness
EXTD=YEAR: 2006
EXTT0=
EXTT1=
EXTT2=
EXTT3=
EXTT4=
EXTT5=
EXTT6=
EXTT7=
EXTT8=
EXTT9=
EXTT10=
EXTT11=
EXTT12=
EXTT13=
PLAYORDER=
